#!OML:ASF X:\für Bonn\!DataBase\2005_08_12_Daniel\c3d\Daniel.ASF
:FULLY-SPECIFIED
:DEGREES
198
root 0.569862 15.384 1.06154 710.849 -141.794 2.05797
lowerback 48.6467 -4.36378 4.62447
upperback 11.5625 -7.31272 -0.774328
thorax -7.65274 -4.97213 0.27435
lowerneck 0.577406 4.40555 0.357944
upperneck -0.508201 5.78782 -7.6611
head -0.00345743 2.88878 -2.46797
rclavicle 2.54444e-014 -4.29375e-014
rhumerus -40.1275 7.59637 -87.4087
rradius 114.299
rwrist 9.87254
rhand -40.6471 8.5822
rfingers 7.12502
rthumb -13.5915 -20.9541
lclavicle 2.54444e-014 -4.29375e-014
lhumerus 154.162 169.967 261.336
lradius 105.792
lwrist -23.1138
lhand -31.2655 2.53882
lfingers 7.12502
lthumb -4.53956 32.4702
rfemur -40.5424 1.16944 27.061
rtibia 66.2926
rfoot -16.1179 8.77208
rtoes -3.87114
lfemur 0.488638 7.22263 -16.3971
ltibia 83.1013
lfoot -10.3321 -10.7289
ltoes -11.6078
199
root 0.496663 15.3954 0.963713 710.762 -141.692 2.01803
lowerback 48.7991 -4.28391 4.65263
upperback 11.5794 -7.21321 -0.827593
thorax -7.66181 -4.92749 0.168954
lowerneck 0.662342 4.36315 0.495423
upperneck -0.550956 5.72413 -7.86428
head -0.0236336 2.85854 -2.56283
rclavicle -3.97569e-014 5.725e-014
rhumerus -39.9964 7.64632 -87.284
rradius 114.239
rwrist 9.73771
rhand -40.6009 8.60864
rfingers 7.12502
rthumb -13.547 -20.9307
lclavicle -3.97569e-014 5.725e-014
lhumerus 154.089 169.978 261.294
lradius 105.841
lwrist -23.0469
lhand -31.1479 2.67232
lfingers 7.12502
lthumb -4.42596 32.6061
rfemur -39.9767 1.2536 27.0579
rtibia 66.4462
rfoot -16.6592 8.59531
rtoes -3.88874
lfemur -0.62872 7.18424 -16.1459
ltibia 84.3448
lfoot -11.0919 -10.8985
ltoes -10.6388
200
root 0.423036 15.4062 0.867214 710.723 -141.551 1.93793
lowerback 48.8732 -4.2046 4.68123
upperback 11.6195 -7.11605 -0.884723
thorax -7.63411 -4.88279 0.0541749
lowerneck 0.65447 4.31574 0.547982
upperneck -0.501558 5.66253 -7.94052
head -0.00568449 2.82561 -2.5968
rclavicle 7.95139e-015 -3.49861e-014
rhumerus -39.8022 7.65781 -87.1265
rradius 114.109
rwrist 9.55805
rhand -40.5907 8.76881
rfingers 7.12502
rthumb -13.5371 -20.7712
lclavicle 7.95139e-015 -3.49861e-014
lhumerus 154.079 169.955 261.289
lradius 105.834
lwrist -23.1298
lhand -31.0098 2.78757
lfingers 7.12502
lthumb -4.29264 32.7241
rfemur -39.4675 1.30592 27.0017
rtibia 66.6296
rfoot -17.273 8.45044
rtoes -4.25423
lfemur -1.82438 7.14007 -15.9584
ltibia 85.5224
lfoot -11.7254 -10.9709
ltoes -9.23029
201
root 0.352552 15.4174 0.769158 710.621 -141.455 1.94153
lowerback 48.9493 -4.09976 4.69184
upperback 11.6607 -6.9975 -0.921242
thorax -7.60111 -4.83074 -0.039539
lowerneck 0.705835 4.28025 0.713664
upperneck -0.525919 5.61049 -8.1571
head -0.0129548 2.80012 -2.70054
rclavicle -3.65764e-014 -4.6118e-014
rhumerus -39.622 7.71379 -87.001
rradius 114.004
rwrist 9.40245
rhand -40.5316 8.80699
rfingers 7.12502
rthumb -13.4802 -20.7368
lclavicle -3.65764e-014 -4.6118e-014
lhumerus 154.002 169.834 261.268
lradius 105.916
lwrist -23.2024
lhand -30.7913 2.80527
lfingers 7.12502
lthumb -4.08164 32.7459
rfemur -38.9228 1.43365 27.039
rtibia 66.7823
rfoot -17.8226 8.28627
rtoes -4.47002
lfemur -3.03164 7.12831 -15.6622
ltibia 86.637
lfoot -12.2237 -11.0265
ltoes -7.85211
202
root 0.281672 15.4262 0.673517 710.553 -141.295 1.82426
lowerback 49.0581 -3.98894 4.6458
upperback 11.6988 -6.89712 -0.940753
thorax -7.57213 -4.78907 -0.0797936
lowerneck 0.674517 4.23579 0.686542
upperneck -0.487118 5.55021 -8.23634
head 0.00332443 2.76706 -2.72096
rclavicle 4.45278e-014 -3.73715e-014
rhumerus -39.3778 7.77056 -86.7832
rradius 113.861
rwrist 9.18567
rhand -40.515 8.83925
rfingers 7.12502
rthumb -13.4642 -20.7056
lclavicle 4.45278e-014 -3.73715e-014
lhumerus 153.979 169.716 261.372
lradius 105.956
lwrist -23.2711
lhand -30.5534 2.84178
lfingers 7.12502
lthumb -3.85192 32.7867
rfemur -38.3541 1.47676 26.9573
rtibia 66.971
rfoot -18.4079 8.14005
rtoes -4.54376
lfemur -4.21632 7.03761 -15.5542
ltibia 87.6812
lfoot -12.7925 -11.0378
ltoes -7.14365
203
root 0.212019 15.4339 0.577713 710.458 -141.166 1.78226
lowerback 49.1102 -3.87474 4.63651
upperback 11.747 -6.77621 -0.967024
thorax -7.52536 -4.73637 -0.156305
lowerneck 0.654773 4.20259 0.723512
upperneck -0.465062 5.50467 -8.35553
head 0.0161486 2.74213 -2.76683
rclavicle -7.71285e-014 9.46215e-014
rhumerus -39.2186 7.84131 -86.6342
rradius 113.802
rwrist 8.93122
rhand -40.5823 8.87547
rfingers 7.12502
rthumb -13.5291 -20.665
lclavicle -7.71285e-014 9.46215e-014
lhumerus 153.948 169.587 261.392
lradius 105.974
lwrist -23.3433
lhand -30.3402 2.87752
lfingers 7.12502
lthumb -3.646 32.8261
rfemur -37.794 1.54549 26.9513
rtibia 67.1376
rfoot -18.9824 7.97703
rtoes -4.50423
lfemur -5.43375 6.9701 -15.3734
ltibia 88.6778
lfoot -13.5055 -11.08
ltoes -7.32375
204
root 0.142158 15.4425 0.481533 710.388 -141.02 1.70187
lowerback 49.1383 -3.76544 4.64495
upperback 11.801 -6.65503 -1.03324
thorax -7.47451 -4.67993 -0.285057
lowerneck 0.553255 4.15199 0.769625
upperneck -0.352879 5.44507 -8.41119
head 0.0689568 2.70636 -2.78988
rclavicle 5.725e-014 -8.34896e-014
rhumerus -39.0742 7.80764 -86.527
rradius 113.689
rwrist 8.80963
rhand -40.6173 8.98214
rfingers 7.12502
rthumb -13.5628 -20.5561
lclavicle 5.725e-014 -8.34896e-014
lhumerus 153.903 169.565 261.379
lradius 106.013
lwrist -23.2562
lhand -30.1277 2.84799
lfingers 7.12502
lthumb -3.44076 32.8
rfemur -37.2396 1.63697 26.9131
rtibia 67.3243
rfoot -19.5615 7.79343
rtoes -4.52064
lfemur -6.67249 6.89668 -15.2409
ltibia 89.6197
lfoot -14.1602 -11.0637
ltoes -7.72825
205
root 0.0726737 15.4517 0.384268 710.262 -140.852 1.66321
lowerback 49.1581 -3.64556 4.6541
upperback 11.8745 -6.52244 -1.0473
thorax -7.3932 -4.62346 -0.3654
lowerneck 0.456007 4.08445 0.790723
upperneck -0.280761 5.35753 -8.52353
head 0.107999 2.65683 -2.82847
rclavicle 5.4467e-014 -1.03766e-013
rhumerus -38.8506 7.77477 -86.3436
rradius 113.576
rwrist 8.62721
rhand -40.6185 9.07772
rfingers 7.12502
rthumb -13.564 -20.4605
lclavicle 5.4467e-014 -1.03766e-013
lhumerus 153.93 169.472 261.436
lradius 105.992
lwrist -23.2863
lhand -29.9964 2.95233
lfingers 7.12502
lthumb -3.31399 32.9063
rfemur -36.6489 1.67791 26.9088
rtibia 67.5029
rfoot -20.1015 7.63083
rtoes -4.439
lfemur -7.85112 6.81871 -15.062
ltibia 90.4743
lfoot -14.8254 -11.0541
ltoes -8.22717
